# xmcd
#
# Track frame offsets:
# 150
# 13826
# 29905
# 48074
# 64527
# 78073
# 93931
# 110155
# 125517
# 143045
# 156669
# 173749
# 193259
# 209971
# 230280
# 247064
# 260788
# 275699
# 290348
# 306511
#
# Disc length: 4334 seconds
#
# Revision: 0
# Processed by: cddbd v1.5.1PL2 Copyright (c) Steve Scherf et al.
# Submitted via: Audion 3.0.2 (http://www.panic.com/audion/)
#
DISCID=3810ec14
DTITLE=Compilation - Hiver 2005
DYEAR=1900
DGENRE=
TTITLE0=Camille - Prendre ta douleur
TTITLE1=Ginie Line - Jusqu'à la tolérance
TTITLE2=Robbie Williams - Tripping
TTITLE3=Patrick Fiori - Toutes les peines
TTITLE4=Sandrine Kimberlain - La godiche
TTITLE5=Amadou and Mariam - Dimanche à Bamako
TTITLE6=Juanes - La camisa negra
TTITLE7=Natacha St Pier - J'avais quelqu'un
TTITLE8=Emmanuel Moire - etre à la hauteur
TTITLE9=Bénabar - Le dîner
TTITLE10=Anggun - Cesse la pluie
TTITLE11=Roch Voisine - Une femme parle avec son coeur
TTITLE12=Jean-Louis Aubert - Parle moi
TTITLE13=DHT - Listen to your heart
TTITLE14=Elie Semoun - Vous
TTITLE15=Garou and Marilou - Tu es comme ca
TTITLE16=Tina Arena - Jusqu'à l'impossible
TTITLE17=Katie Melua - 9 million bicycles
TTITLE18=Johnny Halliday - Ma religion dans son regard
TTITLE19=Willy Deney - Et si tu n'existais pas
EXTD=
EXTT0=
EXTT1=
EXTT2=
EXTT3=
EXTT4=
EXTT5=
EXTT6=
EXTT7=
EXTT8=
EXTT9=
EXTT10=
EXTT11=
EXTT12=
EXTT13=
EXTT14=
EXTT15=
EXTT16=
EXTT17=
EXTT18=
EXTT19=
PLAYORDER=
